<mxfile host="app.diagrams.net" modified="2024-02-22T10:49:36.855Z" agent="Mozilla/5.0 (Windows NT 10.0; Win64; x64) AppleWebKit/537.36 (KHTML, like Gecko) Chrome/121.0.0.0 Safari/537.36 Edg/121.0.0.0" etag="14WAF7ER1H431jRPmUIJ" version="23.1.5" type="device">
  <diagram name="Page-1" id="swYJjQD1tD0Xhd0HuBGQ">
    <mxGraphModel dx="1002" dy="535" grid="1" gridSize="10" guides="1" tooltips="1" connect="1" arrows="1" fold="1" page="1" pageScale="1" pageWidth="827" pageHeight="1169" math="0" shadow="0">
      <root>
        <mxCell id="0" />
        <mxCell id="1" parent="0" />
        <mxCell id="TQKTaGP2AaG03ylwYyTC-4" value="Administrators" style="shape=umlActor;verticalLabelPosition=bottom;verticalAlign=top;html=1;outlineConnect=0;" parent="1" vertex="1">
          <mxGeometry x="110" y="390" width="30" height="60" as="geometry" />
        </mxCell>
        <mxCell id="TQKTaGP2AaG03ylwYyTC-7" value="Lietotājs" style="shape=umlActor;verticalLabelPosition=bottom;verticalAlign=top;html=1;outlineConnect=0;" parent="1" vertex="1">
          <mxGeometry x="110" y="100" width="30" height="60" as="geometry" />
        </mxCell>
        <mxCell id="TQKTaGP2AaG03ylwYyTC-10" value="" style="ellipse;whiteSpace=wrap;html=1;" parent="1" vertex="1">
          <mxGeometry x="230" y="35" width="120" height="55" as="geometry" />
        </mxCell>
        <mxCell id="TQKTaGP2AaG03ylwYyTC-11" value="Uzzina info par klienta projektiem" style="text;html=1;strokeColor=none;fillColor=none;align=center;verticalAlign=middle;whiteSpace=wrap;rounded=0;" parent="1" vertex="1">
          <mxGeometry x="240" y="47.5" width="100" height="30" as="geometry" />
        </mxCell>
        <mxCell id="TQKTaGP2AaG03ylwYyTC-13" value="" style="ellipse;whiteSpace=wrap;html=1;" parent="1" vertex="1">
          <mxGeometry x="230" y="110" width="120" height="50" as="geometry" />
        </mxCell>
        <mxCell id="TQKTaGP2AaG03ylwYyTC-14" value="Apskata preces veikalā" style="text;html=1;strokeColor=none;fillColor=none;align=center;verticalAlign=middle;whiteSpace=wrap;rounded=0;" parent="1" vertex="1">
          <mxGeometry x="245" y="120" width="90" height="30" as="geometry" />
        </mxCell>
        <mxCell id="TQKTaGP2AaG03ylwYyTC-18" value="" style="endArrow=none;html=1;rounded=0;" parent="1" edge="1">
          <mxGeometry width="50" height="50" relative="1" as="geometry">
            <mxPoint x="130" y="136" as="sourcePoint" />
            <mxPoint x="230.15805098247233" y="136.3666076055295" as="targetPoint" />
            <Array as="points" />
          </mxGeometry>
        </mxCell>
        <mxCell id="TQKTaGP2AaG03ylwYyTC-20" value="" style="endArrow=none;html=1;rounded=0;entryX=0;entryY=0.665;entryDx=0;entryDy=0;entryPerimeter=0;" parent="1" target="TQKTaGP2AaG03ylwYyTC-10" edge="1">
          <mxGeometry width="50" height="50" relative="1" as="geometry">
            <mxPoint x="130" y="140" as="sourcePoint" />
            <mxPoint x="180" y="90" as="targetPoint" />
          </mxGeometry>
        </mxCell>
        <mxCell id="TQKTaGP2AaG03ylwYyTC-21" value="" style="ellipse;whiteSpace=wrap;html=1;" parent="1" vertex="1">
          <mxGeometry x="510" y="110" width="120" height="50" as="geometry" />
        </mxCell>
        <mxCell id="TQKTaGP2AaG03ylwYyTC-22" value="Pievieno preces grozam" style="text;html=1;strokeColor=none;fillColor=none;align=center;verticalAlign=middle;whiteSpace=wrap;rounded=0;" parent="1" vertex="1">
          <mxGeometry x="520" y="120" width="100" height="30" as="geometry" />
        </mxCell>
        <mxCell id="TQKTaGP2AaG03ylwYyTC-23" value="" style="ellipse;whiteSpace=wrap;html=1;" parent="1" vertex="1">
          <mxGeometry x="510" y="230" width="120" height="50" as="geometry" />
        </mxCell>
        <mxCell id="TQKTaGP2AaG03ylwYyTC-24" value="Pasūta preces" style="text;html=1;strokeColor=none;fillColor=none;align=center;verticalAlign=middle;whiteSpace=wrap;rounded=0;" parent="1" vertex="1">
          <mxGeometry x="540" y="240" width="60" height="30" as="geometry" />
        </mxCell>
        <mxCell id="TQKTaGP2AaG03ylwYyTC-26" value="" style="ellipse;whiteSpace=wrap;html=1;" parent="1" vertex="1">
          <mxGeometry x="230" y="180" width="120" height="50" as="geometry" />
        </mxCell>
        <mxCell id="TQKTaGP2AaG03ylwYyTC-27" value="Izveido kontu" style="text;html=1;strokeColor=none;fillColor=none;align=center;verticalAlign=middle;whiteSpace=wrap;rounded=0;" parent="1" vertex="1">
          <mxGeometry x="260" y="190" width="60" height="30" as="geometry" />
        </mxCell>
        <mxCell id="TQKTaGP2AaG03ylwYyTC-28" value="" style="endArrow=none;html=1;rounded=0;entryX=0;entryY=0.5;entryDx=0;entryDy=0;" parent="1" source="TQKTaGP2AaG03ylwYyTC-7" target="TQKTaGP2AaG03ylwYyTC-26" edge="1">
          <mxGeometry width="50" height="50" relative="1" as="geometry">
            <mxPoint x="160" y="210" as="sourcePoint" />
            <mxPoint x="210" y="160" as="targetPoint" />
          </mxGeometry>
        </mxCell>
        <mxCell id="TQKTaGP2AaG03ylwYyTC-29" value="" style="ellipse;whiteSpace=wrap;html=1;" parent="1" vertex="1">
          <mxGeometry x="245" y="240" width="120" height="50" as="geometry" />
        </mxCell>
        <mxCell id="TQKTaGP2AaG03ylwYyTC-30" value="Ielogojas kontā" style="text;html=1;strokeColor=none;fillColor=none;align=center;verticalAlign=middle;whiteSpace=wrap;rounded=0;" parent="1" vertex="1">
          <mxGeometry x="265" y="250" width="60" height="30" as="geometry" />
        </mxCell>
        <mxCell id="TQKTaGP2AaG03ylwYyTC-31" value="" style="endArrow=none;html=1;rounded=0;entryX=0;entryY=0.5;entryDx=0;entryDy=0;" parent="1" source="TQKTaGP2AaG03ylwYyTC-7" target="TQKTaGP2AaG03ylwYyTC-29" edge="1">
          <mxGeometry width="50" height="50" relative="1" as="geometry">
            <mxPoint x="120" y="250" as="sourcePoint" />
            <mxPoint x="170" y="200" as="targetPoint" />
          </mxGeometry>
        </mxCell>
        <mxCell id="TQKTaGP2AaG03ylwYyTC-32" value="" style="ellipse;whiteSpace=wrap;html=1;" parent="1" vertex="1">
          <mxGeometry x="230" y="310" width="120" height="50" as="geometry" />
        </mxCell>
        <mxCell id="TQKTaGP2AaG03ylwYyTC-33" value="Pārvalda savu kontu" style="text;html=1;strokeColor=none;fillColor=none;align=center;verticalAlign=middle;whiteSpace=wrap;rounded=0;" parent="1" vertex="1">
          <mxGeometry x="260" y="320" width="70" height="30" as="geometry" />
        </mxCell>
        <mxCell id="TQKTaGP2AaG03ylwYyTC-34" value="" style="endArrow=none;html=1;rounded=0;" parent="1" source="TQKTaGP2AaG03ylwYyTC-7" target="TQKTaGP2AaG03ylwYyTC-32" edge="1">
          <mxGeometry width="50" height="50" relative="1" as="geometry">
            <mxPoint x="100" y="160" as="sourcePoint" />
            <mxPoint x="160" y="230" as="targetPoint" />
          </mxGeometry>
        </mxCell>
        <mxCell id="TQKTaGP2AaG03ylwYyTC-36" value="" style="ellipse;whiteSpace=wrap;html=1;" parent="1" vertex="1">
          <mxGeometry x="510" y="310" width="120" height="50" as="geometry" />
        </mxCell>
        <mxCell id="TQKTaGP2AaG03ylwYyTC-37" value="Dzēš savu kontu" style="text;html=1;strokeColor=none;fillColor=none;align=center;verticalAlign=middle;whiteSpace=wrap;rounded=0;" parent="1" vertex="1">
          <mxGeometry x="540" y="320" width="60" height="30" as="geometry" />
        </mxCell>
        <mxCell id="TQKTaGP2AaG03ylwYyTC-39" value="&amp;lt;&amp;lt;include&amp;gt;&amp;gt;" style="text;html=1;strokeColor=none;fillColor=none;align=center;verticalAlign=middle;whiteSpace=wrap;rounded=0;" parent="1" vertex="1">
          <mxGeometry x="390" y="310" width="60" height="30" as="geometry" />
        </mxCell>
        <mxCell id="TQKTaGP2AaG03ylwYyTC-41" value="&amp;lt;&amp;lt;extend&amp;gt;&amp;gt;" style="text;html=1;strokeColor=none;fillColor=none;align=center;verticalAlign=middle;whiteSpace=wrap;rounded=0;" parent="1" vertex="1">
          <mxGeometry x="390" y="110" width="60" height="30" as="geometry" />
        </mxCell>
        <mxCell id="TQKTaGP2AaG03ylwYyTC-44" value="" style="endArrow=none;html=1;rounded=0;entryX=0;entryY=0.5;entryDx=0;entryDy=0;" parent="1" target="TQKTaGP2AaG03ylwYyTC-26" edge="1">
          <mxGeometry width="50" height="50" relative="1" as="geometry">
            <mxPoint x="140" y="420" as="sourcePoint" />
            <mxPoint x="190" y="370" as="targetPoint" />
          </mxGeometry>
        </mxCell>
        <mxCell id="TQKTaGP2AaG03ylwYyTC-45" value="" style="endArrow=none;html=1;rounded=0;entryX=0;entryY=0.5;entryDx=0;entryDy=0;" parent="1" target="TQKTaGP2AaG03ylwYyTC-29" edge="1">
          <mxGeometry width="50" height="50" relative="1" as="geometry">
            <mxPoint x="140" y="420" as="sourcePoint" />
            <mxPoint x="190" y="370" as="targetPoint" />
          </mxGeometry>
        </mxCell>
        <mxCell id="TQKTaGP2AaG03ylwYyTC-46" value="" style="endArrow=none;html=1;rounded=0;entryX=0.007;entryY=0.672;entryDx=0;entryDy=0;entryPerimeter=0;" parent="1" target="TQKTaGP2AaG03ylwYyTC-32" edge="1">
          <mxGeometry width="50" height="50" relative="1" as="geometry">
            <mxPoint x="140" y="420" as="sourcePoint" />
            <mxPoint x="190" y="370" as="targetPoint" />
          </mxGeometry>
        </mxCell>
        <mxCell id="TQKTaGP2AaG03ylwYyTC-47" value="" style="ellipse;whiteSpace=wrap;html=1;" parent="1" vertex="1">
          <mxGeometry x="230" y="380" width="120" height="50" as="geometry" />
        </mxCell>
        <mxCell id="TQKTaGP2AaG03ylwYyTC-48" value="Rediģē informāciju lapā" style="text;html=1;strokeColor=none;fillColor=none;align=center;verticalAlign=middle;whiteSpace=wrap;rounded=0;" parent="1" vertex="1">
          <mxGeometry x="245" y="390" width="90" height="30" as="geometry" />
        </mxCell>
        <mxCell id="TQKTaGP2AaG03ylwYyTC-49" value="" style="endArrow=none;html=1;rounded=0;entryX=0;entryY=0.5;entryDx=0;entryDy=0;" parent="1" target="TQKTaGP2AaG03ylwYyTC-47" edge="1">
          <mxGeometry width="50" height="50" relative="1" as="geometry">
            <mxPoint x="140" y="420" as="sourcePoint" />
            <mxPoint x="190" y="370" as="targetPoint" />
          </mxGeometry>
        </mxCell>
        <mxCell id="TQKTaGP2AaG03ylwYyTC-50" value="" style="ellipse;whiteSpace=wrap;html=1;" parent="1" vertex="1">
          <mxGeometry x="230" y="450" width="120" height="50" as="geometry" />
        </mxCell>
        <mxCell id="TQKTaGP2AaG03ylwYyTC-51" value="Pievieno/dzēš preces veikalā" style="text;html=1;strokeColor=none;fillColor=none;align=center;verticalAlign=middle;whiteSpace=wrap;rounded=0;" parent="1" vertex="1">
          <mxGeometry x="240" y="460" width="110" height="30" as="geometry" />
        </mxCell>
        <mxCell id="TQKTaGP2AaG03ylwYyTC-52" value="" style="endArrow=none;html=1;rounded=0;entryX=0;entryY=0.25;entryDx=0;entryDy=0;" parent="1" target="TQKTaGP2AaG03ylwYyTC-51" edge="1">
          <mxGeometry width="50" height="50" relative="1" as="geometry">
            <mxPoint x="140" y="420" as="sourcePoint" />
            <mxPoint x="190" y="370" as="targetPoint" />
          </mxGeometry>
        </mxCell>
        <mxCell id="TQKTaGP2AaG03ylwYyTC-53" value="" style="ellipse;whiteSpace=wrap;html=1;" parent="1" vertex="1">
          <mxGeometry x="230" y="520" width="120" height="50" as="geometry" />
        </mxCell>
        <mxCell id="TQKTaGP2AaG03ylwYyTC-54" value="Pārvalda lietotāju kontus" style="text;html=1;strokeColor=none;fillColor=none;align=center;verticalAlign=middle;whiteSpace=wrap;rounded=0;" parent="1" vertex="1">
          <mxGeometry x="245" y="530" width="90" height="30" as="geometry" />
        </mxCell>
        <mxCell id="TQKTaGP2AaG03ylwYyTC-55" value="" style="endArrow=none;html=1;rounded=0;entryX=0;entryY=0.25;entryDx=0;entryDy=0;" parent="1" target="TQKTaGP2AaG03ylwYyTC-54" edge="1">
          <mxGeometry width="50" height="50" relative="1" as="geometry">
            <mxPoint x="140" y="420" as="sourcePoint" />
            <mxPoint x="190" y="370" as="targetPoint" />
          </mxGeometry>
        </mxCell>
        <mxCell id="Su5c-m4GZSbVI9anfHKj-2" value="" style="swimlane;startSize=0;" parent="1" vertex="1">
          <mxGeometry x="210" width="490" height="580" as="geometry">
            <mxRectangle x="140" width="50" height="40" as="alternateBounds" />
          </mxGeometry>
        </mxCell>
        <mxCell id="Su5c-m4GZSbVI9anfHKj-3" value="&lt;b&gt;&lt;font style=&quot;font-size: 14px;&quot;&gt;Lietojumgadījumu diagramma mūzikas projektu reklamēšanas tīmekļa sistēmai&lt;/font&gt;&lt;/b&gt;" style="text;html=1;strokeColor=none;fillColor=none;align=center;verticalAlign=middle;whiteSpace=wrap;rounded=0;" parent="Su5c-m4GZSbVI9anfHKj-2" vertex="1">
          <mxGeometry x="20" y="5" width="455" height="30" as="geometry" />
        </mxCell>
        <mxCell id="39g_3OK2SLyTrB4K2G1y-1" value="" style="endArrow=none;dashed=1;html=1;dashPattern=1 3;strokeWidth=2;rounded=0;entryX=-0.06;entryY=0.648;entryDx=0;entryDy=0;entryPerimeter=0;" parent="Su5c-m4GZSbVI9anfHKj-2" target="TQKTaGP2AaG03ylwYyTC-22" edge="1">
          <mxGeometry width="50" height="50" relative="1" as="geometry">
            <mxPoint x="140" y="140" as="sourcePoint" />
            <mxPoint x="190" y="90" as="targetPoint" />
          </mxGeometry>
        </mxCell>
        <mxCell id="39g_3OK2SLyTrB4K2G1y-2" value="" style="endArrow=none;dashed=1;html=1;dashPattern=1 3;strokeWidth=2;rounded=0;" parent="Su5c-m4GZSbVI9anfHKj-2" target="TQKTaGP2AaG03ylwYyTC-36" edge="1">
          <mxGeometry width="50" height="50" relative="1" as="geometry">
            <mxPoint x="140" y="335" as="sourcePoint" />
            <mxPoint x="190" y="290" as="targetPoint" />
          </mxGeometry>
        </mxCell>
        <mxCell id="TQKTaGP2AaG03ylwYyTC-43" value="&amp;lt;&amp;lt;extend&amp;gt;&amp;gt;" style="text;html=1;strokeColor=none;fillColor=none;align=center;verticalAlign=middle;whiteSpace=wrap;rounded=0;rotation=90;" parent="Su5c-m4GZSbVI9anfHKj-2" vertex="1">
          <mxGeometry x="355" y="175" width="50" height="40" as="geometry" />
        </mxCell>
        <mxCell id="39g_3OK2SLyTrB4K2G1y-5" value="" style="endArrow=none;dashed=1;html=1;dashPattern=1 3;strokeWidth=2;rounded=0;entryX=0.5;entryY=0;entryDx=0;entryDy=0;exitX=0.5;exitY=1;exitDx=0;exitDy=0;" parent="1" source="TQKTaGP2AaG03ylwYyTC-21" target="TQKTaGP2AaG03ylwYyTC-23" edge="1">
          <mxGeometry width="50" height="50" relative="1" as="geometry">
            <mxPoint x="520" y="210" as="sourcePoint" />
            <mxPoint x="570" y="160" as="targetPoint" />
          </mxGeometry>
        </mxCell>
      </root>
    </mxGraphModel>
  </diagram>
</mxfile>
